<?xml version="1.0" encoding="UTF-8" standalone="no"?>
<!-- Created with Inkscape (http://www.inkscape.org/) -->

<svg
   version="1.1"
   id="svg1"
   width="1024"
   height="1024"
   viewBox="245 166 520 520"
   sodipodi:docname="mana_logo_kolor_X.svg"
   inkscape:version="1.4.3 (0d15f75, 2025-12-25)"
   xmlns:inkscape="http://www.inkscape.org/namespaces/inkscape"
   xmlns:sodipodi="http://sodipodi.sourceforge.net/DTD/sodipodi-0.dtd"
   xmlns="http://www.w3.org/2000/svg"
   xmlns:svg="http://www.w3.org/2000/svg">
  <rect width="1024" height="1024" fill="#ffffff"/>
  <defs
     id="defs1" />
  <sodipodi:namedview
     id="namedview1"
     pagecolor="#ffffff"
     bordercolor="#000000"
     borderopacity="0.25"
     inkscape:showpageshadow="2"
     inkscape:pageopacity="0.0"
     inkscape:pagecheckerboard="0"
     inkscape:deskcolor="#d1d1d1"
     inkscape:zoom="0.72949219"
     inkscape:cx="511.31459"
     inkscape:cy="512"
     inkscape:window-width="1920"
     inkscape:window-height="986"
     inkscape:window-x="-11"
     inkscape:window-y="-11"
     inkscape:window-maximized="1"
     inkscape:current-layer="g1" />
  <g
     inkscape:groupmode="layer"
     inkscape:label="Image"
     id="g1">
    <path
       style="fill:#6dbfb0;fill-opacity:1"
       d="M 0,512 V 0 h 512 512 v 512 512 H 512 0 Z m 397.67197,97.15596 c 20.70264,-6.95322 42.783,-18.0419 78.30905,-39.3265 l 16.48102,-9.87422 5.51898,2.17092 c 3.03544,1.194 18.34398,8.43734 34.01898,16.0963 58.40101,28.53532 80.8808,35.60834 109.5,34.45299 15.09688,-0.60946 21.57406,-2.14891 33.98875,-8.07822 18.94214,-9.04685 30.83135,-21.88485 37.13385,-40.09723 2.41346,-6.97421 2.77299,-9.53868 2.8039,-20 0.0421,-14.23765 -1.55324,-21.26782 -7.54158,-33.23398 -7.83488,-15.656 -22.91709,-28.66197 -39.20378,-33.80693 -14.01216,-4.42644 -26.67677,-4.35687 -41.18114,0.22621 -20.25259,6.39942 -67.77128,30.3873 -91.61994,46.25062 l -5.61995,3.73819 -10.51814,-4.74633 c -5.78498,-2.61048 -21.25601,-9.99561 -34.38006,-16.41139 -51.74758,-25.29717 -69.1607,-31.14089 -95.86191,-32.17058 -11.89487,-0.45871 -15.42212,-0.22442 -23.45767,1.55813 -28.08635,6.23047 -48.90279,25.26645 -55.55407,50.80245 -1.96416,7.54091 -1.9523,26.04172 0.0217,33.83351 3.49659,13.80191 12.56112,27.98766 23.76576,37.19278 6.55566,5.38577 19.9094,11.97554 28.02732,13.83085 9.777,2.23448 24.53963,1.22959 35.36895,-2.40757 z m -35.12465,-4.64091 c -10.72386,-3.0557 -19.60267,-8.46292 -28.6149,-17.42656 -9.15872,-9.10934 -13.61616,-16.4586 -16.45708,-27.13383 -1.91138,-7.18236 -1.9049,-24.88526 0.0118,-32.244 5.56308,-21.35814 23.15016,-38.16477 46.51285,-44.4488 9.34777,-2.51433 34.50719,-2.45865 45.5,0.1007 20.5343,4.78081 36.62096,11.29668 75.5,30.58114 14.025,6.95657 28.34685,13.90575 31.82633,15.44263 3.47949,1.53689 6.17949,2.90846 6,3.04794 -0.17948,0.13948 -7.13055,4.59734 -15.44683,9.90635 l -15.1205,9.65275 -7.3795,-3.0565 C 475.00638,544.84753 457.86203,539.7068 445,536.97901 c -15.37383,-3.26049 -35.53777,-3.33409 -46.5,-0.16973 -4.4,1.27011 -9.93225,3.43815 -12.29389,4.81788 C 380.73625,544.82278 370,555.2835 370,557.41737 c 0,0.89403 1.13615,2.14317 2.52479,2.77588 2.35182,1.07156 2.8624,0.77157 7.45316,-4.37915 5.93102,-6.65445 16.11214,-11.98981 26.43707,-13.85419 17.67502,-3.19159 47.60548,2.12528 74.58498,13.24932 l 3.5,1.4431 -4.5,2.84437 c -27.8003,17.5721 -65.76391,37.33905 -82,42.69588 -11.30752,3.73073 -26.92089,4.75355 -35.45268,2.32247 z M 622,605.36432 c -22.1264,-4.23969 -45.39665,-12.98338 -80.5,-30.24749 -14.3,-7.03286 -29.49799,-14.29716 -33.77332,-16.14289 -6.02614,-2.60159 -7.48712,-3.61211 -6.5,-4.49591 1.73437,-1.55283 26.49737,-17.43491 28.20707,-18.09098 0.75284,-0.28889 7.43662,1.73491 14.85284,4.49734 23.543,8.76941 40.01921,12.12546 59.40496,12.10026 13.25254,-0.0172 23.69977,-2.1223 32.39151,-6.52674 C 641.75625,543.58309 654,532.30053 654,529.94753 c 0,-0.80654 -0.95395,-2.06219 -2.11989,-2.79033 -1.95408,-1.22034 -2.58226,-0.84842 -8.03174,4.75533 -7.11298,7.31433 -11.09586,9.4675 -22.59261,12.21371 C 609.18015,547.01072 590.41469,546.41255 574,542.61992 561.5533,539.7441 538.92581,532.04763 538.66241,530.60026 538.4305,529.32595 564.2865,514.56029 586,503.56705 c 20.62919,-10.44427 40.39223,-18.74066 50.08512,-21.02541 12.56822,-2.9625 26.04255,-1.19599 38.91488,5.10181 10.541,5.15719 22.33532,16.98315 27.32625,27.39954 15.1001,31.51488 3.98363,66.12727 -26.2979,81.88145 -13.07384,6.80176 -19.21339,8.24851 -36.52835,8.60772 -8.25,0.17115 -16.125,0.0956 -17.5,-0.16784 z M 518.65397,490.21699 c 5.82555,-12.22478 14.08249,-21.28413 40.45901,-44.39087 29.22392,-25.60114 37.78409,-35.96841 42.95281,-52.02034 7.25113,-22.51907 -2.8423,-48.7132 -22.56579,-58.56199 -8.53044,-4.25962 -18.4553,-5.16499 -30,-2.73669 -10.25221,2.15644 -18.27768,6.6313 -26.1786,14.59673 -8.68568,8.75659 -9.51109,10.46885 -6.26776,13.0021 l 2.44636,1.91077 2.99673,-3.75835 c 8.64325,-10.83994 16.09322,-15.91374 27.75218,-18.90063 17.42519,-4.46413 35.16954,3.4809 42.75078,19.14164 1.15129,2.37824 2.80549,7.81666 3.67601,12.0854 1.95784,9.60063 0.6864,18.76932 -3.87107,27.91524 -6.41629,12.87618 -12.74622,19.89514 -38.30463,42.47422 -22.68776,20.04305 -33.42587,31.14134 -38.61063,39.90566 l -3.58145,6.05411 -4.7425,-6.9409 c -6.38677,-9.34736 -15.45938,-18.98627 -28.89031,-30.6936 -33.10023,-28.85246 -42.33941,-38.35636 -48.0161,-49.39182 -14.38,-27.9547 1.64432,-60.4389 30.46537,-61.75884 25.87382,-1.18495 46.31511,19.29934 49.94131,50.04639 0.92095,7.80889 0.83616,10.99037 -0.49915,18.72806 C 508.85158,416.86094 509.30867,419 513.1472,419 c 2.61329,0 3.66185,-3.29276 4.70449,-14.77349 2.1318,-23.47348 -4.25402,-43.2582 -18.65094,-57.78481 -23.56265,-23.77492 -62.11894,-19.21058 -75.2789,8.91161 -10.89019,23.2718 -5.67118,45.45305 15.99826,67.99398 4.71894,4.90873 16.5425,15.84409 26.27458,24.30082 23.81453,20.69372 34.23986,32.39391 43.0088,48.2681 2.85789,5.17358 4.83832,3.97925 9.45048,-5.69922 z m -1.10081,-165.43412 c 2.12836,-3.44823 8.43981,-10.65718 14.1713,-16.18653 C 545.48628,295.3199 548.5,289.55799 548.5,276.52333 c 0,-7.71048 -0.39224,-9.86031 -2.69589,-14.77597 -5.22973,-11.15952 -16.03549,-20.04666 -27.66448,-22.75253 -15.07827,-3.50845 -33.74323,6.32938 -41.35906,21.79932 -2.97253,6.03807 -3.28057,7.51087 -3.28057,15.68482 0,8.16599 0.31108,9.65704 3.28206,15.73118 2.62473,5.36623 5.27873,8.56458 13.25133,15.96922 5.48309,5.09249 12.10616,12.30311 14.71793,16.02361 6.16596,8.78347 7.69554,8.85275 12.80184,0.57989 z M 498.61225,307.5 c -14.75969,-14.88824 -17.66375,-19.56865 -18.38747,-29.63465 -0.40354,-5.61275 -0.0863,-7.48804 2.05951,-12.17515 5.70414,-12.45948 15.92649,-19.66296 27.9282,-19.68043 23.67129,-0.0344 38.89252,22.89215 29.08865,43.81406 -0.94745,2.02189 -6.49358,8.40117 -12.32473,14.17617 -5.83116,5.775 -11.69882,11.85 -13.03926,13.5 l -2.43715,3 z"
       id="path1" />
  </g>
</svg>
